HIERARCHY
ROOT pelvis
{
	OFFSET 0.000000 0.000000 0.916916
	CHANNELS 6 Xposition Yposition Zposition Xrotation Yrotation Zrotation
	JOINT spine
	{
		OFFSET 0.000000 0.000000 0.000000
		CHANNELS 6 Xposition Yposition Zposition Xrotation Yrotation Zrotation
		JOINT spine.001
		{
			OFFSET 0.000000 -0.014812 0.282625
			CHANNELS 3 Xrotation Yrotation Zrotation
			JOINT neck
			{
				OFFSET 0.000000 0.034491 0.280904
				CHANNELS 6 Xposition Yposition Zposition Xrotation Yrotation Zrotation
				JOINT face
				{
					OFFSET 0.000000 0.003858 0.221020
					CHANNELS 6 Xposition Yposition Zposition Xrotation Yrotation Zrotation
					End Site
					{
						OFFSET 0.000000 -0.027705 -0.009025
					}
				}
			}
			JOINT shoulder.L
			{
				OFFSET 0.000000 0.034491 0.280904
				CHANNELS 6 Xposition Yposition Zposition Yrotation Xrotation Zrotation
				JOINT upper_arm.L
				{
					OFFSET 0.184408 0.000000 0.000000
					CHANNELS 6 Xposition Yposition Zposition Xrotation Yrotation Zrotation
					JOINT forearm.L
					{
						OFFSET 0.319597 0.000133 0.001102
						CHANNELS 6 Xposition Yposition Zposition Xrotation Yrotation Zrotation
						End Site
						{
							OFFSET 0.275885 -0.004694 -0.001518
						}
					}
				}
			}
			JOINT shoulder.R
			{
				OFFSET 0.000000 0.034491 0.280904
				CHANNELS 6 Xposition Yposition Zposition Yrotation Xrotation Zrotation
				JOINT upper_arm.R
				{
					OFFSET -0.184408 0.000000 0.000000
					CHANNELS 6 Xposition Yposition Zposition Xrotation Yrotation Zrotation
					JOINT forearm.R
					{
						OFFSET -0.316425 0.000133 0.001102
						CHANNELS 6 Xposition Yposition Zposition Xrotation Yrotation Zrotation
						End Site
						{
							OFFSET -0.272744 -0.004639 -0.001518
						}
					}
				}
			}
		}
	}
	JOINT pelvis.L
	{
		OFFSET 0.000000 0.000000 0.000000
		CHANNELS 6 Xposition Yposition Zposition Yrotation Xrotation Zrotation
		End Site
		{
			OFFSET 0.105694 0.000000 0.000000
		}
	}
	JOINT pelvis.R
	{
		OFFSET 0.000000 0.000000 0.000000
		CHANNELS 6 Xposition Yposition Zposition Yrotation Xrotation Zrotation
		End Site
		{
			OFFSET -0.105694 0.000000 0.000000
		}
	}
	JOINT thigh.L
	{
		OFFSET 0.105694 0.000000 0.000000
		CHANNELS 6 Xposition Yposition Zposition Xrotation Yrotation Zrotation
		JOINT shin.L
		{
			OFFSET 0.021460 0.000000 -0.409486
			CHANNELS 6 Xposition Yposition Zposition Xrotation Yrotation Zrotation
			JOINT foot.L
			{
				OFFSET 0.021682 0.000000 -0.413708
				CHANNELS 3 Xrotation Yrotation Zrotation
				End Site
				{
					OFFSET 0.019024 -0.193974 -0.081453
				}
			}
			JOINT heel.02.L
			{
				OFFSET 0.021682 0.000000 -0.413708
				CHANNELS 3 Xrotation Yrotation Zrotation
				End Site
				{
					OFFSET 0.104806 0.039635 -0.087226
				}
			}
		}
	}
	JOINT thigh.R
	{
		OFFSET -0.105694 0.000000 0.000000
		CHANNELS 6 Xposition Yposition Zposition Xrotation Yrotation Zrotation
		JOINT shin.R
		{
			OFFSET -0.021718 0.000000 -0.414405
			CHANNELS 6 Xposition Yposition Zposition Xrotation Yrotation Zrotation
			JOINT foot.R
			{
				OFFSET -0.022372 0.000000 -0.426879
				CHANNELS 3 Xrotation Yrotation Zrotation
				End Site
				{
					OFFSET -0.019484 -0.198656 -0.083419
				}
			}
			JOINT heel.02.R
			{
				OFFSET -0.022372 0.000000 -0.426879
				CHANNELS 3 Xrotation Yrotation Zrotation
				End Site
				{
					OFFSET -0.103343 0.039635 -0.069163
				}
			}
		}
	}
}
MOTION
Frames: 4
Frame Time: 0.041667
0.153115 0.069030 0.894596 -0.000000 0.000000 -68.464607 0.000000 0.000000 0.000000 -8.784010 -2.342092 -0.303894 9.997487 -0.186236 -1.516891 -0.000000 0.034491 0.280903 13.504959 -2.254198 -9.295080 0.000000 0.003858 0.221020 -2.530752 -0.000000 -0.000002 0.000000 0.034490 0.280903 0.020354 0.000001 -0.002560 0.184408 0.000000 -0.000000 -13.168646 75.593071 16.853017 0.319597 0.000133 0.001102 8.744362 21.969626 -42.092984 0.000000 0.034490 0.280903 0.073577 0.000007 -0.009069 -0.184408 0.000000 0.000000 -23.384782 -78.324491 -28.425950 -0.316425 0.000133 0.001102 3.292505 -11.651613 31.110887 0.000000 0.000000 0.000000 -4.078495 0.000003 0.000077 0.000000 0.000000 0.000000 -4.078498 0.000000 0.000000 0.105426 -0.000000 0.007517 -9.452364 1.984702 -0.332702 0.021460 0.000000 -0.409486 14.347692 -0.823872 0.859240 -3.539593 -11.139243 22.893524 -11.127258 46.485031 30.517289 -0.105426 0.000000 -0.007517 1.414348 -12.372413 0.079638 -0.021718 -0.000000 -0.414405 4.466022 4.726450 -0.417670 18.758245 9.750381 -44.413937 -41.004638 -58.746867 -49.831923 
0.148983 0.064936 0.892806 -0.000000 0.000000 -67.253492 -0.000000 0.000000 0.000000 -8.952935 -1.483550 -0.194703 9.997414 -0.188864 -1.538302 -0.000000 0.034491 0.280903 13.334712 -1.628675 -8.617389 -0.000000 0.003858 0.221019 -2.113974 0.000001 -0.000001 0.000000 0.034491 0.280903 -0.206527 0.000045 0.025418 0.184409 -0.000000 0.000000 -15.859149 75.406812 20.346384 0.319597 0.000133 0.001102 8.972633 22.089376 -42.901958 0.000000 0.034491 0.280903 -0.153304 0.000025 0.018805 -0.184409 -0.000000 -0.000000 -22.757782 -77.970673 -27.839827 -0.316425 0.000133 0.001102 3.589582 -12.532131 31.399619 0.000000 -0.000000 0.000000 -3.280729 -0.000002 -0.000073 0.000000 -0.000000 0.000000 -3.280731 0.000000 -0.000003 0.105521 0.000000 0.006049 -9.387895 2.396754 -0.296605 0.021460 0.000000 -0.409486 14.579826 -1.132735 0.912664 -4.059156 -11.232389 22.714008 -10.650142 45.829039 29.757529 -0.105521 -0.000000 -0.006049 -0.495759 -11.886810 -0.025765 -0.021718 0.000000 -0.414405 8.834133 3.809034 -0.756906 18.835696 9.935500 -45.179478 -41.232944 -58.908783 -47.350577 
0.145411 0.059818 0.890779 -0.000000 0.000000 -66.197203 -0.000000 0.000000 0.000000 -9.066054 -0.810852 -0.107226 9.997074 -0.200415 -1.632455 0.000000 0.034491 0.280904 13.212115 -1.110810 -7.988021 -0.000000 0.003858 0.221019 -1.978110 0.000001 -0.000000 0.000000 0.034491 0.280904 -0.185984 0.000036 0.022829 0.184409 -0.000000 -0.000000 -17.949073 74.924744 23.201488 0.319597 0.000133 0.001102 9.064365 22.101000 -43.294073 0.000000 0.034491 0.280904 -0.132724 0.000019 0.016285 -0.184409 -0.000000 -0.000000 -21.590539 -77.794243 -26.507003 -0.316425 0.000133 0.001102 3.986320 -13.581418 32.031654 0.000000 0.000000 0.000000 -2.428394 -0.000002 -0.000102 0.000000 0.000000 0.000000 -2.428395 -0.000000 -0.000002 0.105599 0.000000 0.004478 -9.421230 2.904920 -0.255783 0.021460 0.000000 -0.409486 15.068994 -1.499858 0.992002 -4.787242 -11.329631 22.400772 -10.746843 45.615968 29.174101 -0.105599 -0.000000 -0.004478 -3.241977 -10.557591 -0.130299 -0.021718 -0.000000 -0.414405 14.580005 1.320814 -0.936641 18.053887 10.680321 -46.211858 -40.249379 -58.635719 -44.144472 
0.142359 0.053863 0.889515 -0.000000 0.000000 -65.135928 0.000000 -0.000000 -0.000000 -9.231743 -0.294053 -0.039316 9.996730 -0.213406 -1.738319 0.000000 0.034491 0.280904 13.238225 -0.643504 -6.804803 0.000000 0.003858 0.221020 -2.074216 -0.000001 -0.000006 -0.000000 0.034490 0.280903 -0.041718 0.000003 0.005130 0.184409 -0.000000 0.000000 -18.683554 74.529767 24.308744 0.319597 0.000133 0.001102 8.612437 21.379575 -42.631746 -0.000000 0.034490 0.280903 0.011541 0.000001 -0.001465 -0.184408 -0.000000 -0.000000 -20.733118 -77.553970 -25.569978 -0.316425 0.000133 0.001102 4.501056 -14.631076 33.435572 0.000000 -0.000000 -0.000000 -1.670433 0.000001 0.000058 0.000000 -0.000000 -0.000000 -1.670498 0.000000 0.000000 0.105649 -0.000000 0.003081 -9.549825 3.507840 -0.208876 0.021460 0.000000 -0.409486 15.805674 -1.878039 1.093384 -5.944061 -11.436176 21.824025 -11.377471 45.836098 28.760352 -0.105649 0.000000 -0.003081 -5.968063 -8.725613 -0.143248 -0.021718 -0.000000 -0.414405 20.036698 -1.983716 -0.711074 15.764439 12.266635 -47.103105 -38.976242 -58.192624 -41.222350 
